<?xml version="1.0" standalone="no"?><!DOCTYPE svg PUBLIC "-//W3C//DTD SVG 1.1//EN" "http://www.w3.org/Graphics/SVG/1.1/DTD/svg11.dtd"><svg
  class="icon" viewBox="0 0 1024 1024" version="1.1" xmlns="http://www.w3.org/2000/svg"
  xmlns:xlink="http://www.w3.org/1999/xlink" width="200" height="200"><path d="M640 938.642286V1024H554.861714v-85.357714H640z m-170.642286 0V1024H384v-85.357714h85.357714zM896 0a128 128 0 0 1 127.780571 120.466286L1024 128v768a128 128 0 0 1-120.466286 127.780571L896 1024H725.357714v-85.357714h170.642286a42.642286 42.642286 0 0 0 42.422857-37.668572l0.219429-4.973714V128a42.642286 42.642286 0 0 0-37.668572-42.422857l-4.973714-0.219429H128a42.642286 42.642286 0 0 0-42.422857 37.668572l-0.219429 4.973714v768c0 21.650286 16.164571 39.862857 37.668572 42.422857l4.973714 0.219429h170.642286V1024H128a128 128 0 0 1-127.780571-120.466286L0 896V128A128 128 0 0 1 120.466286 0.219429L128 0h768z" fill="#01a7fd"></path><path d="M455.387429 245.321143c54.930286 0 98.742857 12.946286 130.486857 39.058286 29.988571 25.161143 45.202286 59.099429 45.202285 100.717714 0 30.500571-7.826286 57.051429-23.552 79.579428a119.222857 119.222857 0 0 1-24.137142 23.844572l-7.241143 4.973714-6.875429 4.242286 1.828572 0.585143c15.798857 5.851429 29.476571 13.604571 40.96 23.405714l6.656 6.144 6.144 6.582857c18.870857 22.235429 28.452571 52.662857 28.452571 89.453714 0 54.857143-20.041143 96.256-59.684571 122.88-30.354286 19.675429-72.118857 30.134857-124.269715 31.670858l-13.165714 0.219428H202.605714V245.321143h252.708572z m365.933714 0v533.357714H713.362286V245.321143h107.958857zM445.732571 529.261714H289.28v180.589715h154.258286l11.190857-0.219429c29.110857-1.097143 52.882286-6.436571 70.948571-16.164571 27.209143-14.921143 40.96-38.692571 40.96-71.021715 0-32.182857-9.947429-56.32-29.988571-71.68-20.187429-14.555429-50.395429-21.504-90.916572-21.504z m-11.849142-215.04H289.28v167.570286h143.140571l11.190858-0.219429c32.621714-1.170286 57.344-7.753143 73.581714-19.748571 18.285714-14.994286 27.282286-37.668571 27.282286-66.706286 0-27.282286-9.289143-48.64-27.355429-61.659428-18.578286-13.165714-45.860571-19.309714-83.236571-19.309715z" fill="#01a7fd"></path></svg>
